<?xml version="1.0" standalone="no"?>
<!DOCTYPE svg PUBLIC "-//W3C//DTD SVG 20010904//EN"
 "http://www.w3.org/TR/2001/REC-SVG-20010904/DTD/svg10.dtd">
<svg version="1.0" xmlns="http://www.w3.org/2000/svg"
 width="5000.000000pt" height="4000.000000pt" viewBox="0 0 5000.000000 4000.000000"
 preserveAspectRatio="xMidYMid meet">

<g transform="translate(0.000000,4000.000000) scale(0.100000,-0.100000)"
fill="#00df9a" stroke="none">
<path d="M31541 31302 c-23 -75 -70 -220 -104 -322 -34 -102 -62 -189 -63
-195 -1 -5 -16 -55 -34 -110 -18 -55 -33 -104 -34 -110 -1 -5 -4 -14 -7 -20
-3 -5 -32 -91 -64 -190 -31 -99 -88 -274 -126 -390 -38 -115 -72 -219 -74
-230 -3 -11 -18 -58 -34 -105 -16 -47 -55 -166 -86 -265 -31 -99 -69 -216 -84
-260 -16 -44 -59 -174 -96 -290 -36 -115 -77 -241 -90 -280 -46 -139 -167
-516 -169 -528 -1 -7 -4 -16 -7 -22 -6 -10 -51 -142 -55 -160 -1 -5 -16 -55
-34 -110 -18 -55 -33 -104 -34 -110 -1 -5 -4 -14 -8 -20 -3 -5 -31 -91 -63
-190 -32 -99 -82 -254 -112 -345 -30 -91 -56 -172 -57 -180 -1 -8 -8 -27 -14
-43 -6 -15 -14 -38 -17 -50 -2 -12 -18 -60 -34 -107 -16 -47 -55 -166 -86
-265 -31 -99 -69 -216 -85 -260 -15 -44 -58 -174 -95 -290 -129 -401 -187
-581 -253 -780 -36 -110 -67 -204 -68 -210 -5 -22 -53 -172 -64 -200 -6 -16
-12 -32 -12 -35 0 -3 -4 -16 -9 -29 -5 -13 -11 -31 -13 -40 -2 -9 -6 -23 -9
-31 -3 -8 -25 -73 -48 -145 -23 -71 -67 -209 -99 -305 -75 -230 -206 -634
-237 -735 -13 -44 -37 -116 -53 -160 -15 -44 -49 -145 -74 -225 -25 -80 -65
-206 -90 -280 -24 -74 -78 -243 -121 -375 -42 -132 -88 -271 -102 -310 -14
-38 -26 -77 -28 -85 -2 -8 -18 -60 -35 -115 -18 -55 -33 -104 -34 -110 -1 -5
-4 -14 -7 -20 -4 -5 -32 -91 -64 -190 -31 -99 -83 -256 -113 -350 -31 -93 -55
-174 -54 -179 2 -4 -1 -13 -6 -20 -5 -6 -40 -105 -77 -221 -37 -115 -79 -248
-94 -295 -16 -47 -36 -111 -46 -142 l-19 -57 48 -58 c27 -32 53 -58 60 -58 6
0 11 -7 11 -15 0 -14 48 -79 199 -267 51 -64 60 -72 75 -61 14 12 14 11 3 -4
-15 -19 -7 -42 10 -32 6 4 8 2 5 -3 -8 -13 92 -139 107 -135 6 2 8 1 4 -3 -6
-6 32 -61 124 -175 118 -149 183 -229 204 -255 14 -16 48 -61 76 -98 28 -37
56 -66 63 -63 6 2 11 -5 11 -18 -1 -14 4 -20 14 -18 8 2 12 0 8 -4 -11 -10 32
-65 44 -58 6 4 8 2 5 -4 -4 -5 9 -29 28 -53 20 -23 40 -50 46 -61 5 -10 15
-15 21 -12 7 4 8 3 4 -4 -4 -6 8 -28 27 -49 18 -21 52 -63 76 -93 24 -30 48
-55 54 -55 7 -1 11 -7 9 -14 -2 -10 61 -97 88 -121 3 -3 16 -20 29 -38 12 -18
27 -29 33 -26 6 4 8 2 4 -4 -8 -14 143 -204 156 -196 6 4 8 2 4 -4 -5 -8 121
-182 154 -212 3 -3 25 -31 49 -62 24 -32 48 -55 54 -51 5 3 7 1 3 -5 -8 -13
38 -64 49 -54 5 4 5 1 1 -5 -6 -10 136 -204 192 -262 7 -8 20 -24 29 -37 8
-13 20 -21 26 -17 5 3 7 1 4 -4 -9 -14 60 -104 76 -100 7 1 11 -4 9 -11 -1 -7
21 -41 50 -75 29 -35 61 -74 71 -87 10 -14 15 -19 11 -11 -5 9 -3 12 5 7 6 -4
9 -11 6 -16 -3 -4 3 -18 13 -30 l17 -22 58 61 c35 36 55 66 51 72 -4 7 -3 9 4
5 10 -6 27 10 27 27 0 4 3 6 7 5 4 -2 30 19 57 46 42 41 48 52 38 65 -10 12
-9 13 1 7 8 -5 21 -1 33 10 16 14 17 20 6 33 -10 14 -10 14 4 3 13 -10 18 -10
28 1 6 8 7 18 3 22 -4 5 -2 6 4 2 11 -6 151 141 146 156 -1 4 2 6 7 3 12 -8
82 76 77 91 -3 7 1 10 8 7 8 -3 36 21 67 56 30 34 74 83 99 109 25 25 94 100
155 166 60 66 137 149 171 185 34 36 76 81 93 100 l31 34 0 6538 c0 3596 -1
6538 -2 6538 -2 0 -23 -62 -47 -138z m-2856 -11961 c-9 -8 -36 -10 -30 -2 2 4
11 8 20 8 8 0 13 -3 10 -6z m2795 -1087 c0 -8 -19 -13 -24 -6 -3 5 1 9 9 9 8
0 15 -2 15 -3z m-1343 -761 c0 -9 -4 -10 -14 -2 -7 6 -13 12 -13 14 0 1 6 2
13 2 8 0 14 -6 14 -14z"/>
<path d="M26761 28039 c-30 -79 -62 -162 -71 -184 -10 -22 -29 -71 -43 -110
-14 -38 -53 -140 -87 -225 -33 -85 -77 -198 -96 -250 -36 -94 -77 -202 -175
-455 -28 -71 -71 -182 -95 -245 -25 -63 -51 -130 -59 -148 -8 -18 -15 -37 -15
-43 0 -6 -7 -25 -15 -42 -8 -18 -37 -93 -65 -167 -78 -204 -101 -263 -110
-285 -5 -11 -37 -92 -70 -180 -34 -88 -72 -187 -85 -220 -13 -33 -40 -103 -60
-155 -34 -89 -87 -228 -140 -365 -13 -33 -53 -134 -88 -225 -36 -91 -92 -237
-125 -325 -33 -88 -65 -171 -71 -185 -6 -14 -38 -97 -71 -185 -33 -88 -64
-169 -69 -180 -19 -44 -81 -205 -196 -505 -26 -69 -51 -134 -56 -145 -4 -11
-19 -49 -33 -85 -13 -36 -55 -141 -91 -235 -37 -93 -80 -204 -95 -245 -15 -41
-62 -165 -105 -275 -43 -110 -88 -227 -101 -260 -12 -33 -41 -107 -64 -165
-23 -58 -46 -118 -51 -135 -5 -16 -13 -39 -19 -50 -5 -11 -44 -110 -85 -220
-41 -110 -80 -209 -85 -220 -8 -18 -66 -166 -149 -385 -120 -312 -194 -504
-287 -740 -40 -102 -100 -259 -135 -350 -90 -241 -147 -387 -289 -750 -56
-143 -93 -247 -93 -257 0 -7 -4 -13 -8 -13 -3 0 -9 -9 -12 -21 -4 -15 4 -10
28 18 19 21 34 41 35 44 0 3 16 23 35 45 19 21 33 45 30 52 -3 7 -1 11 4 8 13
-8 64 51 56 65 -5 7 -4 10 2 6 12 -8 55 36 51 51 -2 5 2 11 7 12 19 3 36 23
31 37 -3 8 -2 12 3 9 14 -9 94 92 88 109 -4 8 -1 12 7 9 7 -3 44 35 87 88 40
51 78 96 83 99 5 4 5 12 1 19 -5 8 -4 11 3 6 15 -9 225 250 216 266 -4 7 -4
10 0 7 9 -9 44 24 91 85 21 28 47 59 57 70 36 38 58 73 50 81 -4 5 -2 5 5 1
13 -7 45 32 37 46 -3 5 -1 7 5 6 14 -4 92 92 84 105 -3 5 -2 7 4 4 5 -3 40 33
79 80 102 126 320 393 353 433 16 19 59 71 95 114 36 44 63 83 60 88 -3 5 -1
7 5 6 5 -2 71 71 145 162 101 123 134 170 130 185 -4 15 -3 16 4 6 8 -10 23 3
68 59 33 39 58 76 56 81 -1 5 2 8 7 7 5 -2 34 29 65 67 94 118 102 127 191
233 49 58 83 107 79 114 -4 6 -3 8 4 4 14 -9 66 60 56 75 -4 7 -3 9 3 6 14 -9
75 61 67 75 -4 6 -3 8 3 5 6 -4 50 42 97 101 47 59 97 120 111 135 14 15 23
32 20 38 -4 5 -2 8 4 7 5 -2 39 33 75 77 96 118 106 129 109 124 2 -2 48 -59
101 -127 54 -68 106 -132 117 -143 10 -10 20 -22 20 -26 4 -18 52 -72 62 -70
7 1 11 -6 9 -15 -1 -10 6 -23 18 -30 11 -7 20 -16 20 -21 0 -4 38 -55 85 -113
47 -58 92 -116 101 -129 9 -14 20 -22 25 -19 5 3 8 2 7 -3 -2 -4 13 -30 32
-57 l35 -48 3 1636 c1 900 1 2373 0 3273 l-3 1637 -54 -145z m-467 -5658 c3
-4 -4 -7 -14 -6 -27 2 -33 10 -10 12 11 1 22 -2 24 -6z m-244 -76 c0 -2 -6 -8
-13 -14 -10 -8 -14 -7 -14 2 0 8 6 14 14 14 7 0 13 -1 13 -2z m-336 -393 c3
-5 -1 -9 -9 -9 -8 0 -12 4 -9 9 3 4 7 8 9 8 2 0 6 -4 9 -8z m-204 -266 c0 -2
-8 -10 -17 -17 -16 -13 -17 -12 -4 4 13 16 21 21 21 13z m-180 -220 c0 -2 -8
-10 -17 -17 -16 -13 -17 -12 -4 4 13 16 21 21 21 13z m-735 -885 c3 -5 2 -12
-3 -15 -5 -3 -9 1 -9 9 0 17 3 19 12 6z m-91 -69 c3 -5 -1 -9 -9 -9 -8 0 -12
4 -9 9 3 4 7 8 9 8 2 0 6 -4 9 -8z"/>
<path d="M41185 26818 c-38 -16 -153 -65 -255 -108 -1080 -455 -1549 -652
-1675 -705 -82 -35 -424 -179 -760 -320 -335 -142 -713 -300 -838 -353 -125
-52 -226 -98 -225 -102 2 -5 66 -55 143 -112 265 -197 490 -365 690 -512 110
-82 202 -150 204 -152 5 -4 -38 -56 -113 -134 -34 -36 -118 -126 -186 -200
-68 -74 -176 -191 -240 -260 -253 -272 -518 -557 -575 -619 -53 -57 -754 -814
-919 -991 -34 -36 -109 -117 -167 -180 -171 -186 -529 -571 -1010 -1090 -146
-157 -323 -348 -394 -425 -71 -77 -152 -165 -181 -195 -269 -289 -473 -510
-589 -635 -76 -82 -189 -204 -250 -270 -165 -178 -485 -524 -695 -750 -102
-110 -279 -301 -395 -425 -115 -124 -257 -277 -315 -340 -127 -138 -501 -542
-579 -625 -31 -33 -142 -152 -246 -265 -281 -304 -798 -863 -890 -960 -289
-309 -290 -310 -40 -101 127 106 307 257 400 336 313 261 735 616 1354 1135
337 283 686 576 775 650 88 74 274 229 411 345 138 115 293 245 345 290 52 44
142 120 200 167 58 48 173 144 255 213 83 70 227 191 320 269 94 79 289 243
435 365 376 316 564 473 896 752 343 287 530 444 988 829 187 157 355 298 375
315 20 16 232 194 471 395 239 200 532 446 650 545 591 494 1087 910 1107 928
l22 20 147 -119 c492 -398 800 -641 805 -635 4 3 61 362 128 796 118 764 285
1843 431 2784 38 250 70 461 70 468 0 17 -4 16 -85 -19z"/>
<path d="M22015 24224 c-22 -26 -45 -51 -50 -58 -6 -6 -40 -47 -75 -91 -36
-44 -100 -119 -142 -167 -43 -48 -78 -91 -78 -95 0 -5 -17 -26 -38 -49 -20
-23 -55 -63 -77 -90 -22 -26 -89 -106 -150 -178 -60 -71 -121 -143 -135 -160
-13 -17 -60 -74 -104 -126 -43 -52 -97 -117 -120 -145 -23 -27 -68 -81 -102
-120 -33 -38 -116 -137 -184 -220 -68 -82 -128 -155 -134 -160 -6 -6 -27 -30
-46 -55 -19 -25 -77 -94 -128 -155 -51 -60 -101 -119 -110 -131 -32 -39 -117
-139 -122 -144 -3 -3 -25 -30 -50 -60 -70 -85 -84 -102 -100 -120 -8 -9 -33
-38 -55 -65 -21 -28 -66 -82 -100 -121 -33 -39 -78 -92 -100 -119 -22 -27 -56
-68 -75 -90 -45 -52 -48 -56 -117 -140 -32 -38 -68 -81 -79 -95 -12 -14 -71
-83 -131 -155 -60 -71 -118 -141 -130 -155 -40 -46 -198 -235 -238 -285 -22
-27 -65 -78 -95 -114 -30 -37 -62 -75 -71 -86 -9 -11 -34 -40 -55 -65 -22 -25
-59 -70 -84 -99 -25 -30 -50 -59 -55 -65 -6 -6 -47 -56 -92 -111 -44 -55 -92
-111 -107 -124 -14 -14 -26 -30 -26 -37 0 -6 -7 -14 -15 -18 -8 -3 -15 -13
-15 -23 0 -20 427 -440 442 -435 5 1 7 -1 4 -6 -5 -9 138 -157 152 -157 4 0 6
-3 5 -6 -1 -3 11 -19 27 -34 17 -16 30 -25 30 -21 0 5 7 3 15 -4 8 -7 13 -16
10 -20 -7 -12 65 -71 77 -64 7 4 8 2 4 -5 -9 -14 153 -173 167 -164 6 3 7 2 4
-4 -7 -11 36 -56 46 -48 4 3 5 2 2 -2 -3 -3 0 -12 6 -20 10 -11 15 -11 28 -1
14 11 14 11 4 -3 -10 -13 0 -27 65 -92 43 -43 82 -74 87 -70 4 4 5 3 2 -3 -8
-14 169 -188 183 -179 6 4 10 3 9 -2 -4 -22 2 -35 15 -30 18 7 36 -11 29 -29
-5 -13 9 -19 32 -14 6 1 7 -2 3 -5 -9 -10 9 -45 23 -45 6 0 7 6 3 13 -5 8 -2
7 9 -2 10 -8 15 -16 12 -19 -8 -9 17 -32 28 -25 5 3 7 2 4 -4 -8 -13 67 -86
78 -76 4 5 5 3 1 -4 -6 -12 10 -28 29 -28 6 0 10 -7 10 -15 1 -8 7 -14 14 -12
7 1 10 -2 7 -6 -7 -12 28 -44 39 -35 4 5 5 3 2 -3 -8 -14 26 -47 38 -37 4 5 5
3 2 -3 -8 -14 26 -47 38 -37 4 5 5 3 2 -3 -8 -14 86 -107 98 -97 4 5 5 3 2 -3
-8 -14 78 -98 92 -90 7 5 8 1 5 -9 -5 -12 -2 -16 12 -13 14 2 18 -2 16 -16 -3
-14 1 -17 13 -12 10 4 14 2 9 -5 -6 -11 170 -189 187 -189 5 0 9 -6 9 -14 0
-8 5 -18 12 -22 7 -5 8 -3 3 5 -4 7 32 -28 80 -78 76 -78 90 -89 104 -79 14
11 14 11 4 -3 -11 -13 15 -42 172 -196 101 -100 186 -178 189 -175 3 3 6 -2 6
-11 0 -9 7 -17 17 -17 9 0 14 -2 11 -5 -2 -3 69 -78 159 -167 154 -153 165
-162 178 -144 8 10 12 22 10 27 -3 4 0 11 6 15 8 5 9 3 4 -7 -13 -23 8 0 69
75 31 37 53 73 49 79 -3 5 -1 7 4 4 14 -9 47 29 38 43 -3 6 -1 9 7 8 7 -2 12
3 10 10 -1 8 1 11 6 8 5 -3 38 32 74 77 37 45 94 116 127 157 l61 75 0 3433
c0 1887 -1 3432 -2 3432 -2 0 -21 -21 -43 -46z m-2594 -5211 c13 -16 12 -17
-3 -4 -17 13 -22 21 -14 21 2 0 10 -8 17 -17z m580 -620 c13 -16 12 -17 -3 -4
-17 13 -22 21 -14 21 2 0 10 -8 17 -17z m144 -94 c11 -16 1 -19 -13 -3 -7 8
-8 14 -3 14 5 0 13 -5 16 -11z m80 -80 c11 -16 1 -19 -13 -3 -7 8 -8 14 -3 14
5 0 13 -5 16 -11z m246 -236 c13 -16 12 -17 -3 -4 -17 13 -22 21 -14 21 2 0
10 -8 17 -17z m130 -190 c13 -16 12 -17 -3 -4 -17 13 -22 21 -14 21 2 0 10 -8
17 -17z m184 -133 c10 -11 16 -20 13 -20 -3 0 -13 9 -23 20 -10 11 -16 20 -13
20 3 0 13 -9 23 -20z m-15 -15 c13 -14 21 -25 18 -25 -2 0 -15 11 -28 25 -13
14 -21 25 -18 25 2 0 15 -11 28 -25z"/>
<path d="M26128 21038 c-48 -57 -607 -740 -648 -792 -14 -17 -115 -141 -225
-276 -111 -135 -228 -279 -262 -320 -149 -182 -417 -509 -551 -674 -81 -98
-160 -196 -177 -216 -16 -21 -77 -95 -135 -165 -58 -71 -139 -170 -180 -220
-41 -51 -93 -114 -115 -141 -22 -27 -130 -159 -240 -294 -111 -135 -311 -379
-445 -544 -135 -164 -256 -313 -270 -330 -26 -33 -108 -133 -585 -716 -160
-195 -338 -413 -397 -485 -58 -71 -151 -185 -207 -252 -55 -68 -98 -123 -96
-123 3 0 139 80 303 178 163 98 500 299 747 447 248 147 538 321 645 385 107
64 431 258 720 430 289 172 613 366 720 430 107 65 475 284 816 488 l622 371
118 -68 c66 -37 421 -243 789 -456 369 -213 744 -431 835 -483 91 -52 221
-127 290 -167 225 -130 704 -406 770 -445 36 -21 119 -69 185 -108 66 -38 136
-79 155 -89 46 -26 184 -106 1035 -600 22 -12 43 -23 47 -23 4 0 -65 92 -155
204 -89 112 -263 331 -387 487 -123 156 -294 372 -379 479 -85 107 -207 260
-270 340 -132 167 -191 241 -432 545 -96 121 -287 362 -424 535 -137 173 -308
389 -380 480 -72 91 -183 230 -246 310 -221 277 -1044 1316 -1165 1470 -306
388 -360 454 -370 457 -7 2 -32 -20 -56 -49z"/>
<path d="M17877 18921 c-48 -55 -93 -106 -100 -113 -12 -13 -250 -284 -342
-389 -105 -120 -556 -632 -700 -794 -83 -93 -200 -226 -260 -295 -60 -69 -123
-141 -141 -160 -17 -19 -69 -78 -115 -130 -46 -52 -115 -131 -154 -174 -38
-44 -122 -139 -185 -211 -121 -139 -398 -452 -415 -471 -5 -6 -86 -98 -180
-204 -93 -107 -242 -275 -330 -375 -173 -196 -886 -1004 -1080 -1225 -66 -75
-201 -229 -300 -341 -99 -112 -413 -469 -699 -794 -286 -324 -556 -631 -600
-681 -45 -49 -175 -197 -291 -329 -115 -131 -282 -320 -370 -419 -174 -197
-334 -379 -634 -720 -106 -122 -224 -255 -261 -296 -37 -41 -118 -134 -181
-205 -63 -72 -231 -262 -374 -424 -143 -162 -276 -313 -295 -336 -19 -22 -132
-151 -251 -286 -174 -197 -437 -495 -858 -974 -14 -16 -3 -9 25 15 27 25 90
79 140 121 49 41 197 167 329 280 132 113 272 232 311 264 39 33 279 238 534
455 255 217 495 422 535 455 39 33 134 114 211 180 159 136 234 200 569 486
132 113 272 232 311 264 39 33 279 238 534 455 255 217 495 422 535 455 39 33
134 114 211 180 159 136 234 200 569 486 132 113 272 232 311 264 137 116
1142 972 1385 1180 135 115 359 307 499 425 139 118 308 262 374 319 67 57
132 113 146 125 14 12 176 149 360 306 184 156 457 388 605 515 664 568 698
596 714 591 16 -5 177 -46 966 -246 220 -56 648 -164 950 -241 303 -76 807
-204 1120 -284 l570 -144 -291 287 c-159 158 -535 528 -835 822 -299 294 -681
670 -849 835 -1745 1718 -1620 1595 -1630 1595 -4 0 -46 -45 -93 -99z"/>
</g>
</svg>
